<?xml version="1.0" encoding="utf-8"?>
<svg version="1.1" xmlns:xlink="http://www.w3.org/1999/xlink" width="24px" height="24px" xmlns="http://www.w3.org/2000/svg">
  <g transform="matrix(1 0 0 1 -11 -147 )">
    <path d="M 13.7235576923077 6.16071428571429  C 14.4591346153846 6.83928571428571  14.8269230769231 7.66071428571429  14.8269230769231 8.625  C 14.8269230769231 9.58035714285714  14.4591346153846 10.3973214285714  13.7235576923077 11.0758928571429  C 12.9879807692308 11.7544642857143  12.1057692307692 12.09375  11.0769230769231 12.09375  C 10.0480769230769 12.09375  9.16586538461539 11.7544642857143  8.43028846153846 11.0758928571429  C 7.69471153846154 10.3973214285714  7.32692307692308 9.58035714285714  7.32692307692308 8.625  C 7.32692307692308 7.66071428571429  7.69471153846154 6.83928571428571  8.43028846153846 6.16071428571429  C 9.16586538461539 5.48214285714286  10.0480769230769 5.14285714285714  11.0769230769231 5.14285714285714  C 12.1057692307692 5.14285714285714  12.9879807692308 5.48214285714286  13.7235576923077 6.16071428571429  Z M 13.6730769230769 11.8325892857143  C 13.9134615384615 11.6941964285714  14.0673076923077 11.6071428571429  14.1346153846154 11.5714285714286  C 14.5769230769231 11.5714285714286  14.9735576923077 11.6473214285714  15.3245192307692 11.7991071428571  C 15.6754807692308 11.9508928571429  15.9639423076923 12.1629464285714  16.1899038461538 12.4352678571429  C 16.4158653846154 12.7075892857143  16.6057692307692 13.0066964285714  16.7596153846154 13.3325892857143  C 16.9134615384615 13.6584821428571  17.0288461538462 14.0200892857143  17.1057692307692 14.4174107142857  C 17.1826923076923 14.8147321428571  17.2379807692308 15.1830357142857  17.2716346153846 15.5223214285714  C 17.3052884615385 15.8616071428571  17.3221153846154 16.2142857142857  17.3221153846154 16.5803571428571  C 17.3221153846154 17.1785714285714  17.1322115384615 17.7075892857143  16.7524038461538 18.1674107142857  C 16.3725961538462 18.6272321428571  15.8653846153846 18.8571428571429  15.2307692307692 18.8571428571429  L 6.92307692307692 18.8571428571429  C 6.28846153846154 18.8571428571429  5.78125 18.6272321428571  5.40144230769231 18.1674107142857  C 5.02163461538462 17.7075892857143  4.83173076923077 17.1785714285714  4.83173076923077 16.5803571428571  C 4.83173076923077 16.1517857142857  4.85336538461538 15.734375  4.89663461538462 15.328125  C 4.93990384615385 14.921875  5.02884615384615 14.4821428571429  5.16346153846154 14.0089285714286  C 5.29807692307692 13.5357142857143  5.47355769230769 13.1272321428571  5.68990384615385 12.7834821428571  C 5.90625 12.4397321428571  6.20913461538462 12.1517857142857  6.59855769230769 11.9196428571429  C 6.98798076923077 11.6875  7.4375 11.5714285714286  7.94711538461539 11.5714285714286  L 8.01923076923077 11.5714285714286  C 8.08653846153846 11.6071428571429  8.24038461538462 11.6941964285714  8.48076923076923 11.8325892857143  C 8.72115384615385 11.9709821428571  8.89182692307692 12.0647321428571  8.99278846153846 12.1138392857143  C 9.09375 12.1629464285714  9.25240384615385 12.2388392857143  9.46875 12.3415178571429  C 9.68509615384615 12.4441964285714  9.86298076923077 12.515625  10.0024038461538 12.5558035714286  C 10.1418269230769 12.5959821428571  10.3100961538462 12.6361607142857  10.5072115384615 12.6763392857143  C 10.7043269230769 12.7165178571429  10.8942307692308 12.7366071428571  11.0769230769231 12.7366071428571  C 11.2596153846154 12.7366071428571  11.4495192307692 12.7165178571429  11.6466346153846 12.6763392857143  C 11.84375 12.6361607142857  12.0120192307692 12.5959821428571  12.1514423076923 12.5558035714286  C 12.2908653846154 12.515625  12.46875 12.4441964285714  12.6850961538462 12.3415178571429  C 12.9014423076923 12.2388392857143  13.0600961538462 12.1629464285714  13.1610576923077 12.1138392857143  C 13.2620192307692 12.0647321428571  13.4326923076923 11.9709821428571  13.6730769230769 11.8325892857143  Z M 24 5.57142857142857  L 24 8.14285714285714  C 24 8.25892857142857  23.9543269230769 8.359375  23.8629807692308 8.44419642857143  C 23.7716346153846 8.52901785714285  23.6634615384615 8.57142857142857  23.5384615384615 8.57142857142857  L 22.1538461538462 8.57142857142857  L 22.1538461538462 10.2857142857143  L 23.5384615384615 10.2857142857143  C 23.6634615384615 10.2857142857143  23.7716346153846 10.328125  23.8629807692308 10.4129464285714  C 23.9543269230769 10.4977678571429  24 10.5982142857143  24 10.7142857142857  L 24 13.2857142857143  C 24 13.4017857142857  23.9543269230769 13.5022321428571  23.8629807692308 13.5870535714286  C 23.7716346153846 13.671875  23.6634615384615 13.7142857142857  23.5384615384615 13.7142857142857  L 22.1538461538462 13.7142857142857  L 22.1538461538462 15.4285714285714  L 23.5384615384615 15.4285714285714  C 23.6634615384615 15.4285714285714  23.7716346153846 15.4709821428571  23.8629807692308 15.5558035714286  C 23.9543269230769 15.640625  24 15.7410714285714  24 15.8571428571429  L 24 18.4285714285714  C 24 18.5446428571429  23.9543269230769 18.6450892857143  23.8629807692308 18.7299107142857  C 23.7716346153846 18.8147321428571  23.6634615384615 18.8571428571429  23.5384615384615 18.8571428571429  L 22.1538461538462 18.8571428571429  L 22.1538461538462 21.8571428571429  C 22.1538461538462 22.4464285714286  21.9278846153846 22.9508928571429  21.4759615384615 23.3705357142857  C 21.0240384615385 23.7901785714286  20.4807692307692 24  19.8461538461538 24  L 2.30769230769231 24  C 1.67307692307692 24  1.12980769230769 23.7901785714286  0.677884615384615 23.3705357142857  C 0.225961538461538 22.9508928571429  0 22.4464285714286  0 21.8571428571429  L 0 2.14285714285714  C 0 1.55357142857143  0.225961538461538 1.04910714285714  0.677884615384615 0.629464285714286  C 1.12980769230769 0.209821428571429  1.67307692307692 0  2.30769230769231 0  L 19.8461538461538 0  C 20.4807692307692 0  21.0240384615385 0.209821428571429  21.4759615384615 0.629464285714286  C 21.9278846153846 1.04910714285714  22.1538461538462 1.55357142857143  22.1538461538462 2.14285714285714  L 22.1538461538462 5.14285714285714  L 23.5384615384615 5.14285714285714  C 23.6634615384615 5.14285714285714  23.7716346153846 5.18526785714286  23.8629807692308 5.27008928571429  C 23.9543269230769 5.35491071428571  24 5.45535714285714  24 5.57142857142857  Z M 20.1706730769231 22.1584821428571  C 20.2620192307692 22.0736607142857  20.3076923076923 21.9732142857143  20 21.8571428571429  L 20 2.14285714285714  C 20.3076923076923 2.02678571428571  20.2620192307692 1.92633928571428  20.1706730769231 1.84151785714286  C 20.0793269230769 1.75669642857143  19.9711538461538 1.71428571428571  19.8461538461538 2  L 2.30769230769231 2  C 2.18269230769231 1.71428571428571  2.07451923076923 1.75669642857143  1.98317307692308 1.84151785714286  C 1.89182692307692 1.92633928571428  1.84615384615385 2.02678571428571  2 2.14285714285714  L 2 21.8571428571429  C 1.84615384615385 21.9732142857143  1.89182692307692 22.0736607142857  1.98317307692308 22.1584821428571  C 2.07451923076923 22.2433035714286  2.18269230769231 22.2857142857143  2.30769230769231 22  L 19.8461538461538 22  C 19.9711538461538 22.2857142857143  20.0793269230769 22.2433035714286  20.1706730769231 22.1584821428571  Z " fill-rule="nonzero" fill="#000000" stroke="none" fill-opacity="0.996078431372549" transform="matrix(1 0 0 1 11 147 )" />
  </g>
</svg>